<?xml version="1.0" encoding="UTF-8" standalone="no"?>
<svg
   xmlns:dc="http://purl.org/dc/elements/1.1/"
   xmlns:cc="http://creativecommons.org/ns#"
   xmlns:rdf="http://www.w3.org/1999/02/22-rdf-syntax-ns#"
   xmlns:svg="http://www.w3.org/2000/svg"
   xmlns="http://www.w3.org/2000/svg"
   version="1.1"
   id="svg2"
   viewBox="0 0 40 40"
   height="40"
   width="40">
  <metadata
     id="metadata10">
    <rdf:RDF>
      <cc:Work
         rdf:about="">
        <dc:format>image/svg+xml</dc:format>
        <dc:type
           rdf:resource="http://purl.org/dc/dcmitype/StillImage" />
        <dc:title></dc:title>
      </cc:Work>
    </rdf:RDF>
  </metadata>
  <defs
     id="defs8" />
  <path
     style="fill:#f9f9f9"
     id="path4"
     d="m 34.155251,20 c 0,-2.818182 -0.730594,-5.363636 -2.191781,-7.636364 L 12.237443,31.909091 c 2.37443,1.545454 5.022831,2.272727 7.762557,2.272727 1.917808,0 3.744292,-0.363636 5.479452,-1.090909 1.826484,-0.727273 3.287672,-1.727273 4.56621,-3 1.278539,-1.272727 2.283105,-2.818182 3.013699,-4.545455 C 33.789955,23.818182 34.155251,21.909091 34.155251,20 Z M 8.1278539,27.818182 27.853881,8.1818182 C 25.479452,6.636364 22.83105,5.818182 20,5.818182 c -2.557078,0 -4.931507,0.636363 -7.123288,1.909091 -2.19178,1.272727 -3.92694,3 -5.2054792,5.181818 C 6.4840183,15.090909 5.8447488,17.454545 5.8447488,20 c 0,2.818182 0.7305936,5.363636 2.2831051,7.818182 z M 40,20 c 0,2.727273 -0.456622,5.363636 -1.552512,7.818182 -1.09589,2.454545 -2.465753,4.636363 -4.292237,6.363636 C 32.420091,36 30.22831,37.363636 27.762557,38.454545 25.296803,39.545455 22.739726,40 20,40 17.260274,40 14.703197,39.545455 12.237443,38.454545 9.77169,37.363636 7.5799086,36 5.8447488,34.181818 4.0182648,32.454545 2.6484018,30.272727 1.5525114,27.818182 0.456621,25.363636 0,22.727273 0,20 0,17.272727 0.456621,14.727273 1.5525114,12.272727 2.6484018,9.7272727 4.0182648,7.636364 5.8447488,5.818182 7.5799086,4.090909 9.77169,2.636364 12.237443,1.636364 14.703197,0.545455 17.260274,0 20,0 c 2.739726,0 5.296803,0.545455 7.762557,1.636364 2.465753,1 4.657534,2.454545 6.392694,4.181818 1.826484,1.818182 3.196347,3.9090907 4.292237,6.454545 C 39.543378,14.727273 40,17.272727 40,20 Z" />
</svg>
