<?xml version="1.0" encoding="UTF-8" standalone="no"?>
<svg
   xmlns:dc="http://purl.org/dc/elements/1.1/"
   xmlns:cc="http://creativecommons.org/ns#"
   xmlns:rdf="http://www.w3.org/1999/02/22-rdf-syntax-ns#"
   xmlns:svg="http://www.w3.org/2000/svg"
   xmlns="http://www.w3.org/2000/svg"
   version="1.1"
   id="svg12"
   viewBox="0 0 32.835819 40"
   height="40"
   width="32.835819">
  <metadata
     id="metadata20">
    <rdf:RDF>
      <cc:Work
         rdf:about="">
        <dc:format>image/svg+xml</dc:format>
        <dc:type
           rdf:resource="http://purl.org/dc/dcmitype/StillImage" />
        <dc:title></dc:title>
      </cc:Work>
    </rdf:RDF>
  </metadata>
  <defs
     id="defs18" />
  <path
     style="fill:#f9f9f9"
     id="path14"
     d="m 9.154229,18.109453 14.527363,0 0,-5.373135 c 0,-2.089552 -0.696517,-3.781094 -2.089552,-5.174129 -1.492538,-1.393035 -3.18408,-2.189055 -5.17413,-2.189055 -1.990049,0 -3.681592,0.79602 -5.174129,2.189055 -1.393035,1.393035 -2.089552,3.084577 -2.089552,5.174129 z m 23.681592,2.786069 0,16.318408 c 0,0.79602 -0.298508,1.492538 -0.79602,1.99005 C 31.442786,39.701493 30.845771,40 30.049751,40 L 2.7860697,40 C 1.9900498,40 1.3930348,39.701493 0.7960199,39.20398 0.2985075,38.706468 0,38.00995 0,37.21393 L 0,20.895522 c 0,-0.79602 0.2985075,-1.393034 0.7960199,-1.990049 0.5970149,-0.497513 1.1940299,-0.79602 1.9900498,-0.79602 l 0.8955223,0 0,-5.373135 c 0,-3.482587 1.2935324,-6.567164 3.781095,-9.054726 C 9.950249,1.19403 12.935323,0 16.41791,0 c 3.482588,0 6.467662,1.19403 8.955224,3.681592 2.487563,2.487562 3.781095,5.572139 3.781095,9.054726 l 0,5.373135 0.895522,0 c 0.79602,0 1.393035,0.298507 1.99005,0.79602 0.497512,0.597015 0.79602,1.194029 0.79602,1.990049 z" />
</svg>
