<?xml version="1.0" encoding="UTF-8" standalone="no"?>
<svg
   xmlns:dc="http://purl.org/dc/elements/1.1/"
   xmlns:cc="http://creativecommons.org/ns#"
   xmlns:rdf="http://www.w3.org/1999/02/22-rdf-syntax-ns#"
   xmlns:svg="http://www.w3.org/2000/svg"
   xmlns="http://www.w3.org/2000/svg"
   version="1.1"
   id="svg22"
   viewBox="0 0 40 33.424656"
   height="33.424656"
   width="40">
  <metadata
     id="metadata30">
    <rdf:RDF>
      <cc:Work
         rdf:about="">
        <dc:format>image/svg+xml</dc:format>
        <dc:type
           rdf:resource="http://purl.org/dc/dcmitype/StillImage" />
        <dc:title></dc:title>
      </cc:Work>
    </rdf:RDF>
  </metadata>
  <defs
     id="defs28" />
  <path
     style="fill:#f9f9f9"
     id="path24"
     d="m 30.86758,16.712329 c 0,0.456621 -0.182648,0.821918 -0.547945,1.187215 L 16.164384,32.054795 c -0.365297,0.365297 -0.730594,0.547945 -1.187215,0.547945 -0.456621,0 -0.821918,-0.182648 -1.187215,-0.547945 -0.273972,-0.273973 -0.456621,-0.730594 -0.456621,-1.187215 l 0,-7.488584 -11.6894974,0 c -0.456621,0 -0.8219178,-0.182649 -1.1872146,-0.456621 C 0.0913242,22.557078 0,22.191781 0,21.73516 L 0,11.689498 C 0,11.232877 0.091324,10.86758 0.456621,10.502283 0.8219178,10.228311 1.1872146,10.045662 1.6438356,10.045662 l 11.6894974,0 0,-7.488584 c 0,-0.456621 0.182649,-0.913242 0.456621,-1.187215 0.365297,-0.365296 0.730594,-0.547945 1.187215,-0.547945 0.456621,0 0.821918,0.182649 1.187215,0.547945 l 14.155251,14.155251 c 0.365297,0.365297 0.547945,0.730594 0.547945,1.187215 z M 40,7.4885847 40,25.936074 c 0,2.009132 -0.730594,3.835616 -2.191781,5.296803 -1.461187,1.461187 -3.196347,2.191781 -5.296803,2.191781 l -8.310503,0 c -0.273972,0 -0.456621,-0.09132 -0.639269,-0.273973 -0.182649,-0.182648 -0.182649,-0.365296 -0.182649,-0.547945 0,-0.09132 -0.09132,-0.273972 -0.09132,-0.547945 0,-0.273973 0,-0.547945 0,-0.730594 0,-0.182648 0.09132,-0.365296 0.09132,-0.547945 0,-0.273972 0.09133,-0.456621 0.273973,-0.547945 0.09132,-0.09132 0.273973,-0.182648 0.547945,-0.182648 l 8.310503,0 c 1.187214,0 2.100456,-0.365297 2.922374,-1.187215 0.821918,-0.821918 1.278539,-1.826484 1.278539,-2.922374 l 0,-18.4474893 c 0,-1.095891 -0.456621,-2.100457 -1.278539,-2.922375 -0.821918,-0.821917 -1.73516,-1.1872138 -2.922374,-1.1872138 l -8.127854,0 -0.273973,-0.091324 -0.365297,0 -0.182648,-0.1826484 -0.182649,-0.2739725 0,-0.273973 c 0,-0.09132 -0.09132,-0.273973 -0.09132,-0.547945 0,-0.273973 0,-0.547945 0,-0.730594 0,-0.182648 0.09132,-0.365297 0.09132,-0.547945 0,-0.273973 0.09133,-0.456621 0.273973,-0.547945 C 23.744288,0.091329 23.926941,0 24.200913,0 l 8.310503,0 c 2.100456,0 3.835616,0.730594 5.296803,2.191781 C 39.269406,3.6529687 40,5.4794527 40,7.4885847 Z" />
</svg>
