<?xml version="1.0" encoding="UTF-8" standalone="no"?>
<svg
   xmlns:dc="http://purl.org/dc/elements/1.1/"
   xmlns:cc="http://creativecommons.org/ns#"
   xmlns:rdf="http://www.w3.org/1999/02/22-rdf-syntax-ns#"
   xmlns:svg="http://www.w3.org/2000/svg"
   xmlns="http://www.w3.org/2000/svg"
   version="1.1"
   id="svg32"
   viewBox="0 0 40 40"
   height="40"
   width="40">
  <metadata
     id="metadata40">
    <rdf:RDF>
      <cc:Work
         rdf:about="">
        <dc:format>image/svg+xml</dc:format>
        <dc:type
           rdf:resource="http://purl.org/dc/dcmitype/StillImage" />
        <dc:title></dc:title>
      </cc:Work>
    </rdf:RDF>
  </metadata>
  <defs
     id="defs38" />
  <path
     style="fill:#f9f9f9"
     id="path34"
     d="m 40,3.287671 0,11.689498 c 0,0.456621 -0.09132,0.821918 -0.456621,1.187215 -0.365297,0.365296 -0.730594,0.456621 -1.187215,0.456621 l -11.689497,0 c -0.730594,0 -1.187215,-0.273973 -1.552512,-1.004567 -0.273972,-0.639269 -0.182648,-1.278539 0.365297,-1.826484 L 29.13242,10.22831 C 26.575342,7.8538813 23.47032,6.666667 20,6.666667 c -1.826484,0 -3.561644,0.365296 -5.205479,1.004566 -1.643836,0.7305935 -3.013699,1.6438355 -4.200914,2.922374 C 9.315068,11.780822 8.401826,13.150685 7.6712329,14.79452 7.0319635,16.438356 6.6666667,18.173516 6.6666667,20 c 0,1.826484 0.3652968,3.561644 1.0045662,5.205479 0.7305931,1.643836 1.6438351,3.013699 2.9223741,4.200914 1.187215,1.278539 2.557078,2.191781 4.200914,2.922374 1.643835,0.63927 3.378995,1.004566 5.205479,1.004566 2.100457,0 4.018265,-0.456621 5.844749,-1.369863 1.826484,-0.821917 3.470319,-2.100456 4.657534,-3.835616 0.182649,-0.09132 0.365297,-0.273973 0.63927,-0.273973 0.273972,0 0.456621,0.09132 0.639269,0.273973 l 3.561644,3.561644 c 0.182648,0.182648 0.273972,0.273972 0.273972,0.547945 0,0.182648 -0.09132,0.365297 -0.182648,0.547945 -1.917808,2.283105 -4.200913,4.109589 -6.940639,5.388128 C 25.844749,39.452055 23.013699,40 20,40 17.260274,40 14.703196,39.543379 12.237443,38.447489 9.771689,37.351598 7.5799087,35.981735 5.8447489,34.155251 4.0182648,32.420091 2.6484018,30.228311 1.5525114,27.762557 0.456621,25.296804 0,22.739726 0,20 0,17.260274 0.456621,14.703196 1.5525114,12.237443 2.6484018,9.7716895 4.0182648,7.579909 5.8447489,5.844749 7.5799087,4.018265 9.771689,2.648402 12.237443,1.552511 14.703196,0.456621 17.260274,0 20,0 c 2.557078,0 5.022831,0.456621 7.39726,1.369863 2.374429,1.004566 4.56621,2.374429 6.392694,4.109589 L 37.16895,2.100457 C 37.716895,1.552511 38.26484,1.461187 38.995434,1.73516 39.726027,2.100457 40,2.557078 40,3.287671 Z" />
</svg>
