<?xml version="1.0" encoding="UTF-8" standalone="no"?>
<svg
   xmlns:dc="http://purl.org/dc/elements/1.1/"
   xmlns:cc="http://creativecommons.org/ns#"
   xmlns:rdf="http://www.w3.org/1999/02/22-rdf-syntax-ns#"
   xmlns:svg="http://www.w3.org/2000/svg"
   xmlns="http://www.w3.org/2000/svg"
   width="36.884212"
   height="40"
   viewBox="0 0 36.884212 40"
   id="svg42"
   version="1.1">
  <metadata
     id="metadata50">
    <rdf:RDF>
      <cc:Work
         rdf:about="">
        <dc:format>image/svg+xml</dc:format>
        <dc:type
           rdf:resource="http://purl.org/dc/dcmitype/StillImage" />
        <dc:title></dc:title>
      </cc:Work>
    </rdf:RDF>
  </metadata>
  <defs
     id="defs48" />
  <path
     d="m 36.884211,21.557895 c 0,2.526315 -0.421053,4.88421 -1.431579,7.157894 -1.010527,2.273685 -2.273685,4.294737 -3.957895,5.894737 -1.6,1.684211 -3.621053,2.947369 -5.894737,3.957895 C 23.326316,39.578947 20.968421,40 18.442105,40 15.915789,40 13.557895,39.578947 11.284211,38.568421 9.010526,37.557895 6.9894737,36.294737 5.3894737,34.610526 3.7052632,33.010526 2.4421053,30.989474 1.4315789,28.715789 0.4210526,26.442105 0,24.08421 0,21.557895 0,18.610526 0.5894737,15.91579 1.9368421,13.305263 3.2,10.694737 4.9684211,8.5894737 7.3263158,6.821053 8,6.315789 8.842105,6.063158 9.684211,6.231579 10.526316,6.315789 11.2,6.736842 11.621053,7.410526 12.210526,8.0842105 12.378947,8.8421053 12.210526,9.6842105 12.126316,10.526316 11.705263,11.2 11.031579,11.705263 9.515789,12.884211 8.2526316,14.31579 7.4105263,16.08421 c -0.8421052,1.684211 -1.2631579,3.536843 -1.2631579,5.473685 0,1.68421 0.3368421,3.28421 0.9263158,4.8 0.6736842,1.515789 1.5157898,2.778947 2.6947368,3.873684 1.094737,1.178947 2.357895,2.021053 3.873684,2.694737 1.51579,0.589473 3.11579,0.926316 4.8,0.926316 1.684211,0 3.284211,-0.336843 4.8,-0.926316 1.51579,-0.673684 2.778948,-1.51579 3.873684,-2.694737 1.178948,-1.094737 2.021053,-2.357895 2.694737,-3.873684 0.589474,-1.51579 0.926316,-3.11579 0.926316,-4.8 0,-1.936842 -0.421053,-3.789474 -1.263158,-5.473685 -0.842105,-1.768421 -2.105263,-3.2 -3.621052,-4.378947 C 25.178947,11.2 24.757895,10.526316 24.673684,9.6842105 c -0.168421,-0.8421052 0,-1.6 0.589474,-2.2736845 0.421053,-0.673684 1.094737,-1.094737 2.021053,-1.178947 0.842105,-0.168421 1.6,0.08421 2.273684,0.589474 2.357894,1.7684207 4.126316,3.873684 5.389473,6.48421 1.347369,2.610526 1.936843,5.305263 1.936843,8.252632 z M 21.557895,3.115789 l 0,15.326316 c 0,0.842105 -0.336842,1.6 -0.926316,2.189474 -0.673684,0.589474 -1.347368,0.926316 -2.189474,0.926316 -0.842105,0 -1.515789,-0.336842 -2.189473,-0.926316 -0.589474,-0.589474 -0.926316,-1.347369 -0.926316,-2.189474 l 0,-15.326316 c 0,-0.842105 0.336842,-1.6 0.926316,-2.189473 C 16.926316,0.336842 17.6,0 18.442105,0 c 0.842106,0 1.51579,0.336842 2.189474,0.926316 0.589474,0.589473 0.926316,1.347368 0.926316,2.189473 z"
     id="path44"
     style="fill:#f9f9f9" />
</svg>
